<svg xmlns="http://www.w3.org/2000/svg" xmlns:xlink="http://www.w3.org/1999/xlink" viewBox="0 0 23 30" version="1.1" x="0px" y="0px"><g stroke="none" stroke-width="1" fill="#fff" fill-rule="evenodd"><g transform="translate(-340.000000, -1789.000000)" fill="#fff"><g transform="translate(340.000000, 1789.000000)"><path d="M12.5987,16.916 C13.1067,17.137 13.6947,16.906 13.9157,16.401 C14.5547,14.942 15.9927,14 17.5777,14 C18.5477,14 19.4267,14.359 20.1087,15 L19.3447,15 C18.7917,15 18.3447,15.448 18.3447,16 C18.3447,16.552 18.7917,17 19.3447,17 L21.9977,17 L22.0007,17 C22.0257,17 22.0507,16.987 22.0757,16.985 C22.1877,16.976 22.2977,16.96 22.3957,16.917 C22.3977,16.916 22.3997,16.917 22.4017,16.916 C22.4397,16.899 22.4647,16.868 22.4997,16.847 C22.5757,16.802 22.6527,16.76 22.7147,16.696 C22.7617,16.648 22.7887,16.588 22.8247,16.532 C22.8587,16.48 22.9007,16.434 22.9247,16.376 C22.9587,16.291 22.9677,16.199 22.9787,16.108 C22.9827,16.071 22.9997,16.038 22.9997,16 L22.9997,15.989 L22.9997,15.986 L22.9997,13.345 C22.9997,12.792 22.5527,12.345 21.9997,12.345 C21.5037,12.345 21.1107,12.712 21.0317,13.186 C20.0527,12.434 18.8617,12 17.5777,12 C15.1977,12 13.0407,13.413 12.0837,15.599 C11.8627,16.105 12.0927,16.695 12.5987,16.916"/><path fill="#fff" d="M22.4014,19.084 C21.8924,18.861 21.3044,19.093 21.0844,19.599 C20.4454,21.058 19.0074,22 17.4224,22 C16.4524,22 15.5734,21.641 14.8914,21 L15.6554,21 C16.2084,21 16.6554,20.552 16.6554,20 C16.6554,19.448 16.2084,19 15.6554,19 L13.0004,19 C12.9984,19 12.9964,19.001 12.9944,19.001 C12.9364,19.001 12.8784,19.026 12.8194,19.036 C12.7474,19.05 12.6704,19.054 12.6044,19.083 C12.6024,19.084 12.6004,19.083 12.5984,19.084 C12.5604,19.101 12.5354,19.132 12.4994,19.153 C12.4244,19.198 12.3464,19.241 12.2854,19.304 C12.2384,19.352 12.2104,19.412 12.1744,19.468 C12.1414,19.52 12.0994,19.566 12.0754,19.624 C12.0414,19.709 12.0314,19.801 12.0214,19.893 C12.0174,19.93 12.0004,19.962 12.0004,20 L12.0004,20.011 L12.0004,20.014 L12.0004,22.655 C12.0004,23.208 12.4474,23.655 13.0004,23.655 C13.4964,23.655 13.8894,23.288 13.9684,22.814 C14.9474,23.566 16.1384,24 17.4224,24 C19.8014,24 21.9594,22.587 22.9164,20.401 C23.1374,19.895 22.9074,19.306 22.4014,19.084"/><path fill="#fff" d="M9,18 L2,18 L2,6 L18,6 L18,9 C18,9.553 18.447,10 19,10 C19.553,10 20,9.553 20,9 L20,5 L20,1 C20,0.447 19.553,0 19,0 L1,0 C0.447,0 0,0.447 0,1 L0,5 L0,19 C0,19.553 0.447,20 1,20 L9,20 C9.553,20 10,19.553 10,19 C10,18.447 9.553,18 9,18"/><polygon points="5 11 7 11 7 9 5 9"/><polygon points="9 11 11 11 11 9 9 9"/><polygon points="13 11 15 11 15 9 13 9"/><polygon points="5 15 7 15 7 13 5 13"/><polygon points="9 15 11 15 11 13 9 13"/></g></g></g></svg>