<svg xmlns="http://www.w3.org/2000/svg" xmlns:xlink="http://www.w3.org/1999/xlink" version="1.1" x="0px" y="0px" viewBox="0 0 100 125" enable-background="new 0 0 100 100" xml:space="preserve"><path fill="#fff" d="M89.689,12.094H78.375V7.627C78.376,5.74,77.635,5,75.749,5H23.901c-1.886,0-2.627,0.74-2.627,2.627v4.467H10.311  c-1.811,0-2.522,0.711-2.522,2.522v0.209c0.58,14.635,10.248,27.032,24.894,32.274c3.158,4.667,7.021,8.771,11.712,12.14  c-0.585,8.819-3.697,14.964-8.617,20.696c-0.378,0.439-0.396,0.791,0.359,0.791h27.378c0.754,0,0.736-0.351,0.358-0.791  c-4.921-5.732-8.033-11.875-8.618-20.696c4.639-3.33,8.467-7.382,11.605-11.983c14.9-5.146,24.764-17.645,25.351-32.431v-0.209  C92.212,12.805,91.5,12.094,89.689,12.094z M13.351,17.868c-0.044-0.287,0.036-0.52,0.451-0.52h8.046  c1.236,7.832,3.289,15.247,6.397,21.894C20.147,34.446,14.711,26.765,13.351,17.868z M86.648,17.868  c-1.387,9.07-7.01,16.875-15.369,21.65c3.18-6.716,5.271-14.229,6.522-22.169h8.396C86.613,17.349,86.693,17.582,86.648,17.868z"/><path fill="#fff" d="M70.844,83.352H28.806c-1.742,0-2.627,0.888-2.627,2.627v6.394c0,1.741,0.886,2.627,2.627,2.627h42.038  c1.742,0,2.627-0.886,2.627-2.627v-6.394C73.471,84.239,72.585,83.352,70.844,83.352z"/></svg>