<svg xmlns="http://www.w3.org/2000/svg" xmlns:xlink="http://www.w3.org/1999/xlink" version="1.1" x="0px" y="0px" viewBox="0 0 100 125" enable-background="new 0 0 100 100" xml:space="preserve"><g><path fill="white" d="M66.111,15.683c0-4.13-3.35-7.479-7.484-7.479c-4.131,0-7.476,3.35-7.476,7.479c0,4.134,3.345,7.484,7.476,7.484   C62.762,23.167,66.111,19.817,66.111,15.683L66.111,15.683z"/></g><g><path fill="white" d="M56.514,72.957L45.004,84.152l7.362,7.568l12.817-12.466c3.143-3.054,3.914-7.81,1.898-11.702l-5.207-10.05   c-1.337-2.591-4.521-3.603-7.117-2.265c-2.586,1.346-3.602,4.53-2.256,7.121l4.361,8.43C57.234,71.51,57.096,72.392,56.514,72.957z   "/></g><path fill="white" d="M24.231,28.415c-3.759,2.819-9.096,2.055-11.914-1.704c-2.822-3.763-2.059-9.096,1.704-11.918  c3.759-2.818,9.096-2.054,11.914,1.704l9.652,5.877c1.32,0.806,2.806,1.291,4.349,1.417l45.541,3.792l5.266,0.438l-0.438,5.265  c-0.245,2.908-2.798,5.062-5.704,4.823l-23.794-1.979c-0.771-0.068-1.506,0.358-1.826,1.067l-8.721,18.959  c-0.523,1.144-1.257,2.173-2.164,3.038l-31.35,29.979l-7.303-7.632l29.895-28.587c0.911-0.869,1.645-1.898,2.168-3.033l5.721-12.445  c0.422-0.924,0.017-2.021-0.907-2.442c-0.194-0.089-0.405-0.145-0.62-0.166l-9.125-0.759c-1.544-0.13-3.029-0.612-4.35-1.417  l-7.572-4.616C24.514,28.196,24.375,28.306,24.231,28.415z M25.008,21.605c0-3.248-2.633-5.88-5.881-5.88s-5.881,2.632-5.881,5.88  c0,3.249,2.632,5.877,5.881,5.877S25.008,24.854,25.008,21.605L25.008,21.605z"/></svg>