<svg xmlns="http://www.w3.org/2000/svg" viewBox="0 0 70.69 88.3625" x="0px" y="0px" height="24" ><g data-name="Calque 2"><g><path fill="#fff" d="M35.34,0A35.34,35.34,0,1,0,70.69,35.34,35.38,35.38,0,0,0,35.34,0Zm0,64.69A29.34,29.34,0,1,1,64.69,35.34,29.38,29.38,0,0,1,35.34,64.69Z"/><path fill="#fff" d="M48.36,27.06a3.44,3.44,0,0,0,.11-.36c0-.1.07-.19.09-.3a3.51,3.51,0,0,0,0-1.37c0-.1-.06-.2-.09-.3a2,2,0,0,0-.28-.69c0-.09-.09-.19-.15-.27a3.52,3.52,0,0,0-.44-.53l-9.78-9.78a3.54,3.54,0,0,0-.54-.44c-.08-.06-.18-.09-.26-.14a2,2,0,0,0-.69-.29c-.1,0-.2-.07-.3-.09a3.52,3.52,0,0,0-1.37,0c-.1,0-.2.06-.3.09a2,2,0,0,0-.69.29c-.09,0-.18.09-.26.14a3.54,3.54,0,0,0-.54.44l-9.78,9.78a3.52,3.52,0,0,0-.44.53c-.06.09-.1.18-.15.27a2,2,0,0,0-.28.69c0,.1-.07.19-.09.3a3.51,3.51,0,0,0,0,1.37c0,.1.06.2.09.3a2,2,0,0,0,.28.69c0,.09.09.19.15.27a3.52,3.52,0,0,0,1,1c.08.06.18.09.26.14a2,2,0,0,0,.69.29c.1,0,.2.07.3.09a3.52,3.52,0,0,0,.69.07h6.28V54.74a3.5,3.5,0,0,0,7,0V29.23h6.28a3.52,3.52,0,0,0,.69-.07c.1,0,.2-.06.3-.09a2,2,0,0,0,.69-.29c.09,0,.18-.09.26-.14a3.52,3.52,0,0,0,1-1c.06-.09.1-.18.15-.27A3.43,3.43,0,0,0,48.36,27.06Z"/></g></g></svg>